<svg width="32" height="32" viewBox="0 0 32 32" fill="none" xmlns="http://www.w3.org/2000/svg">
<g clip-path="url(#clip0_16_1573)">
<path d="M16.3333 0.666748C7.6944 0.666748 0.666687 7.69446 0.666687 16.3334C0.666687 24.9723 7.6944 32.0001 16.3333 32.0001C24.9723 32.0001 32 24.9723 32 16.3334C32 7.69446 24.9723 0.666748 16.3333 0.666748Z" fill="#76533F"/>
<path d="M23.1875 17.6388H17.6388V23.1875C17.6388 23.9083 17.0541 24.493 16.3333 24.493C15.6126 24.493 15.0279 23.9083 15.0279 23.1875V17.6388H9.47918C8.75843 17.6388 8.17371 17.0541 8.17371 16.3333C8.17371 15.6126 8.75843 15.0279 9.47918 15.0279H15.0279V9.47918C15.0279 8.75843 15.6126 8.17371 16.3333 8.17371C17.0541 8.17371 17.6388 8.75843 17.6388 9.47918V15.0279H23.1875C23.9083 15.0279 24.493 15.6126 24.493 16.3333C24.493 17.0541 23.9083 17.6388 23.1875 17.6388Z" fill="#FAFAFA"/>
</g>
<defs>
<clipPath id="clip0_16_1573">
<rect width="31.3333" height="31.3333" fill="white" transform="translate(0.666687 0.666748)"/>
</clipPath>
</defs>
</svg>
