<svg width="38" height="38" viewBox="0 0 38 38" fill="none" xmlns="http://www.w3.org/2000/svg">
<rect x="0.0562744" y="0.060791" width="37.8028" height="37.8028" fill="#FF0000" fill-opacity="0.01"/>
<path fill-rule="evenodd" clip-rule="evenodd" d="M30.5794 11.0573H26.0807L23.3886 8.30823C23.3886 8.30823 23.3748 8.29437 23.3686 8.29437L23.3547 8.28051C22.9559 7.877 22.4168 7.62134 21.8038 7.62134H16.2055C15.5525 7.62134 14.9734 7.90472 14.5668 8.35597V8.36213L11.9348 11.0573H7.33601C6.09621 11.0573 5.09668 12.0415 5.09668 13.2951V26.9128C5.09668 28.1649 6.09621 29.1829 7.33601 29.1829H30.5794C31.8115 29.1829 32.8188 28.1649 32.8188 26.9128V13.2951C32.8188 12.0415 31.8131 11.0573 30.5794 11.0573ZM18.9577 25.7809C15.5664 25.7809 12.8003 22.9779 12.8003 19.5419C12.8003 16.0982 15.5664 13.3029 18.9577 13.3029C22.3568 13.3029 25.1151 16.0997 25.1151 19.5419C25.1151 22.9779 22.3568 25.7809 18.9577 25.7809Z" fill="black"/>
<mask id="mask0_15_892" style="mask-type:luminance" maskUnits="userSpaceOnUse" x="5" y="7" width="28" height="23">
<path fill-rule="evenodd" clip-rule="evenodd" d="M30.5794 11.0573H26.0807L23.3886 8.30823C23.3886 8.30823 23.3748 8.29437 23.3686 8.29437L23.3547 8.28051C22.9559 7.877 22.4168 7.62134 21.8038 7.62134H16.2055C15.5525 7.62134 14.9734 7.90472 14.5668 8.35597V8.36213L11.9348 11.0573H7.33601C6.09621 11.0573 5.09668 12.0415 5.09668 13.2951V26.9128C5.09668 28.1649 6.09621 29.1829 7.33601 29.1829H30.5794C31.8115 29.1829 32.8188 28.1649 32.8188 26.9128V13.2951C32.8188 12.0415 31.8131 11.0573 30.5794 11.0573ZM18.9577 25.7809C15.5664 25.7809 12.8003 22.9779 12.8003 19.5419C12.8003 16.0982 15.5664 13.3029 18.9577 13.3029C22.3568 13.3029 25.1151 16.0997 25.1151 19.5419C25.1151 22.9779 22.3568 25.7809 18.9577 25.7809Z" fill="white"/>
</mask>
<g mask="url(#mask0_15_892)">
<rect x="0.0562744" y="0.060791" width="37.8028" height="37.8028" fill="#EABEA1"/>
</g>
</svg>
