<svg width="16" height="21" viewBox="0 0 16 21" fill="none" xmlns="http://www.w3.org/2000/svg">
<path d="M15.9903 16.6407L15.0892 5.2853C15.033 4.55373 14.4143 3.98063 13.6806 3.98063H11.9006V3.90062C11.9006 1.7498 10.1508 0 8 0C5.84918 0 4.09938 1.7498 4.09938 3.90062V3.98063H2.31943C1.58568 3.98063 0.966945 4.55369 0.910979 5.28377L0.00953479 16.6422C-0.0602255 17.5517 0.255272 18.4571 0.875074 19.1262C1.49488 19.7954 2.3735 20.1792 3.28563 20.1792H12.7143C13.6264 20.1792 14.5051 19.7954 15.1249 19.1262C15.7447 18.4571 16.0602 17.5517 15.9903 16.6407ZM5.28136 3.90062C5.28136 2.40157 6.50098 1.18198 8 1.18198C9.49902 1.18198 10.7186 2.4016 10.7186 3.90062V3.98063H5.28136V3.90062ZM14.2577 18.3231C13.855 18.7578 13.3069 18.9973 12.7143 18.9973H3.28566C2.69306 18.9973 2.14499 18.7578 1.74227 18.3231C1.33959 17.8883 1.14276 17.3235 1.18801 16.7342L2.08938 5.37568C2.09852 5.25618 2.19957 5.16261 2.31943 5.16261H4.09938V6.61832C4.09938 6.94469 4.36399 7.20931 4.69037 7.20931C5.01674 7.20931 5.28136 6.94469 5.28136 6.61832V5.16261H10.7186V6.61832C10.7186 6.94469 10.9833 7.20931 11.3096 7.20931C11.636 7.20931 11.9006 6.94469 11.9006 6.61832V5.16261H13.6806C13.8004 5.16261 13.9015 5.25622 13.9108 5.37725L14.8119 16.7326C14.8573 17.3235 14.6604 17.8883 14.2577 18.3231Z" fill="white"/>
<path d="M10.6625 10.022C10.4318 9.79118 10.0576 9.79118 9.82681 10.022L7.18791 12.6609L6.17319 11.6462C5.94243 11.4154 5.56821 11.4154 5.33741 11.6462C5.10661 11.877 5.10661 12.2512 5.33741 12.482L6.77001 13.9146C6.88541 14.03 7.03668 14.0877 7.18787 14.0877C7.33905 14.0877 7.49036 14.03 7.60572 13.9146L10.6625 10.8578C10.8933 10.627 10.8933 10.2528 10.6625 10.022Z" fill="white"/>
</svg>
