<svg width="16" height="18" viewBox="0 0 16 18" fill="none" xmlns="http://www.w3.org/2000/svg">
<path d="M1.09705 5.27344L2.03111 16.5493C2.09805 17.3624 2.7907 18 3.60696 18H12.2134C13.0296 18 13.7223 17.3624 13.7892 16.5493L14.7233 5.27344H1.09705ZM5.27294 15.8906C4.99689 15.8906 4.76465 15.6759 4.74714 15.3962L4.2198 6.88841C4.20176 6.59746 4.42269 6.34718 4.71315 6.32914C5.0144 6.30802 5.25389 6.53154 5.27241 6.82249L5.79976 15.3303C5.81842 15.6316 5.58003 15.8906 5.27294 15.8906ZM8.4375 15.3633C8.4375 15.6548 8.20163 15.8906 7.91015 15.8906C7.61867 15.8906 7.38281 15.6548 7.38281 15.3633V6.85547C7.38281 6.56399 7.61867 6.32812 7.91015 6.32812C8.20163 6.32812 8.4375 6.56399 8.4375 6.85547V15.3633ZM11.6005 6.88845L11.0732 15.3963C11.0558 15.6731 10.8251 15.9038 10.5139 15.8896C10.2234 15.8716 10.0025 15.6213 10.0205 15.3303L10.5479 6.82253C10.5659 6.53157 10.8208 6.3199 11.1072 6.32918C11.3976 6.34721 11.6185 6.59749 11.6005 6.88845Z" fill="#76533F"/>
<path d="M14.7656 2.10938H11.6016V1.58203C11.6016 0.709664 10.8919 0 10.0195 0H5.80078C4.92841 0 4.21875 0.709664 4.21875 1.58203V2.10938H1.05469C0.472184 2.10938 0 2.58156 0 3.16406C0 3.7465 0.472184 4.21875 1.05469 4.21875C5.90506 4.21875 9.91543 4.21875 14.7656 4.21875C15.3481 4.21875 15.8203 3.7465 15.8203 3.16406C15.8203 2.58156 15.3481 2.10938 14.7656 2.10938ZM10.5469 2.10938H5.27344V1.58203C5.27344 1.29108 5.50983 1.05469 5.80078 1.05469H10.0195C10.3105 1.05469 10.5469 1.29108 10.5469 1.58203V2.10938Z" fill="#76533F"/>
</svg>
