<svg width="13" height="15" viewBox="0 0 13 15" fill="none" xmlns="http://www.w3.org/2000/svg">
<path d="M12.4441 12.1615L11.7765 3.85205C11.7351 3.31667 11.2765 2.89746 10.733 2.89746H9.41422V4.82744C9.41422 5.06645 9.21835 5.25991 8.97637 5.25991C8.73468 5.25991 8.53852 5.06645 8.53852 4.82744V2.89746H4.51041V4.82744C4.51041 5.06645 4.31425 5.25991 4.07256 5.25991C3.83059 5.25991 3.63472 5.06645 3.63472 4.82744V2.89746H2.31595C1.77246 2.89746 1.31388 3.31667 1.27244 3.8509L0.60459 12.1627C0.552936 12.8284 0.786736 13.4909 1.24587 13.9805C1.70503 14.47 2.35595 14.7511 3.03169 14.7511H10.0173C10.693 14.7511 11.3439 14.47 11.8031 13.9804C12.2622 13.4909 12.496 12.8283 12.4441 12.1615ZM8.49709 7.92993L6.23257 10.1667C6.14705 10.2511 6.03495 10.2935 5.92288 10.2935C5.81079 10.2935 5.69872 10.2511 5.61319 10.1667L4.55187 9.11837C4.38082 8.94942 4.38082 8.6758 4.55187 8.50684C4.72293 8.33789 5.00023 8.33789 5.17099 8.50684L5.92291 9.24925L7.878 7.31815C8.04876 7.14948 8.32607 7.14948 8.49712 7.31815C8.66814 7.4871 8.66814 7.76098 8.49709 7.92993Z" fill="#76533F"/>
<path d="M6.52465 0.707397C4.93122 0.707397 3.63495 2.00396 3.63495 3.59739V3.65664H4.51063V3.59739C4.51063 2.48674 5.41403 1.58305 6.52468 1.58305C7.63533 1.58305 8.53872 2.48674 8.53872 3.59739V3.65664H9.41438V3.59739C9.41435 2.00396 8.11808 0.707397 6.52465 0.707397Z" fill="#76533F"/>
</svg>
