<svg width="17" height="19" viewBox="0 0 17 19" fill="none" xmlns="http://www.w3.org/2000/svg">
<path fill-rule="evenodd" clip-rule="evenodd" d="M7.82768 0.56905L0.321962 6.4658C0.118818 6.6254 0 6.87079 0 7.13075V16.3971C0 17.7928 1.12014 18.9243 2.50191 18.9243H5.83421C5.83541 18.9243 5.83661 18.9243 5.8378 18.9243L5.83793 18.9243H10.838C10.8392 18.9243 10.8404 18.9243 10.8416 18.9243C10.8428 18.9243 10.844 18.9243 10.8452 18.9243H14.1775C15.5592 18.9243 16.6794 17.7928 16.6794 16.3971V7.13075C16.6794 6.87079 16.5606 6.6254 16.3574 6.4658L8.8517 0.56905C8.55054 0.332452 8.12884 0.332452 7.82768 0.56905ZM11.6756 17.2395H14.1775C14.6381 17.2395 15.0115 16.8623 15.0115 16.3971V7.54266L8.33973 2.30045L1.66798 7.54182V16.3971C1.66798 16.8291 1.98992 17.1851 2.40469 17.2338L2.50195 17.2395H5.00383V9.65793C5.00383 9.22593 5.32578 8.86987 5.74054 8.82121L5.8378 8.81554H10.8416C11.2693 8.81554 11.6218 9.14074 11.67 9.55969L11.6756 9.65793V17.2395ZM6.67177 17.2395H10.0076V10.5003H6.67177V17.2395Z" fill="white"/>
</svg>
