<svg width="10" height="14" viewBox="0 0 10 14" fill="none" xmlns="http://www.w3.org/2000/svg">
<path d="M4.77559 13.7318C4.84797 13.8404 4.96985 13.9056 5.10034 13.9056C5.23083 13.9056 5.35271 13.8404 5.4251 13.7318C6.34878 12.3463 7.70929 10.6352 8.65735 8.89496C9.41541 7.50351 9.78394 6.31677 9.78394 5.26697C9.78394 2.68443 7.68288 0.583374 5.10034 0.583374C2.51781 0.583374 0.416748 2.68443 0.416748 5.26697C0.416748 6.31677 0.785269 7.50351 1.54333 8.89496C2.4907 10.6339 3.8538 12.3492 4.77559 13.7318ZM5.10034 1.36397C7.25245 1.36397 9.00334 3.11486 9.00334 5.26697C9.00334 6.18297 8.66594 7.24756 7.97188 8.52152C7.15467 10.0215 5.98851 11.5432 5.10034 12.8224C4.21231 11.5433 3.04607 10.0216 2.2288 8.52152C1.53475 7.24756 1.19735 6.18297 1.19735 5.26697C1.19735 3.11486 2.94823 1.36397 5.10034 1.36397Z" fill="white"/>
<path d="M5.10034 7.60876C6.39161 7.60876 7.44214 6.55823 7.44214 5.26697C7.44214 3.9757 6.39161 2.92517 5.10034 2.92517C3.80907 2.92517 2.75854 3.9757 2.75854 5.26697C2.75854 6.55823 3.80907 7.60876 5.10034 7.60876ZM5.10034 3.70577C5.96119 3.70577 6.66154 4.40612 6.66154 5.26697C6.66154 6.12781 5.96119 6.82817 5.10034 6.82817C4.2395 6.82817 3.53914 6.12781 3.53914 5.26697C3.53914 4.40612 4.2395 3.70577 5.10034 3.70577Z" fill="white"/>
</svg>
