<svg width="15" height="15" viewBox="0 0 15 15" fill="none" xmlns="http://www.w3.org/2000/svg">
<path d="M7.13143 0.486877C3.22273 0.486877 0.059082 3.64999 0.059082 7.55922C0.059082 8.79971 0.382612 10.0113 0.996975 11.0799L0.0857371 13.9096C0.0221749 14.1069 0.074406 14.3231 0.220955 14.4697C0.366101 14.6148 0.581824 14.669 0.781036 14.6049L3.61079 13.6937C4.67937 14.308 5.89094 14.6316 7.13143 14.6316C11.0401 14.6316 14.2038 11.4685 14.2038 7.55922C14.2038 3.65053 11.0407 0.486877 7.13143 0.486877ZM7.13143 13.5265C6.01094 13.5265 4.91873 13.2139 3.97285 12.6224C3.83677 12.5374 3.66777 12.5144 3.51054 12.565L1.46781 13.2228L2.12566 11.1801C2.17552 11.0251 2.15448 10.8559 2.06814 10.7178C1.47677 9.77192 1.16414 8.67971 1.16414 7.55922C1.16414 4.26888 3.84109 1.59193 7.13143 1.59193C10.4218 1.59193 13.0987 4.26888 13.0987 7.55922C13.0987 10.8496 10.4218 13.5265 7.13143 13.5265ZM7.82208 7.55922C7.82208 7.94059 7.51291 8.24988 7.13143 8.24988C6.74995 8.24988 6.44077 7.94059 6.44077 7.55922C6.44077 7.17774 6.74995 6.86856 7.13143 6.86856C7.51291 6.86856 7.82208 7.17774 7.82208 7.55922ZM10.5847 7.55922C10.5847 7.94059 10.2755 8.24988 9.89406 8.24988C9.51258 8.24988 9.2034 7.94059 9.2034 7.55922C9.2034 7.17774 9.51258 6.86856 9.89406 6.86856C10.2755 6.86856 10.5847 7.17774 10.5847 7.55922ZM5.05945 7.55922C5.05945 7.94059 4.75027 8.24988 4.36879 8.24988C3.98742 8.24988 3.67813 7.94059 3.67813 7.55922C3.67813 7.17774 3.98742 6.86856 4.36879 6.86856C4.75027 6.86856 5.05945 7.17774 5.05945 7.55922Z" fill="white"/>
</svg>
