<svg width="20" height="24" viewBox="0 0 20 24" fill="none" xmlns="http://www.w3.org/2000/svg">
<path d="M13.6364 8.90909C13.1343 8.90909 12.7273 9.31609 12.7273 9.81818C12.7273 11.322 11.5038 12.5455 10 12.5455C8.4962 12.5455 7.27274 11.322 7.27274 9.81818C7.27274 9.31609 6.86574 8.90909 6.36365 8.90909C5.86156 8.90909 5.45456 9.31609 5.45456 9.81818C5.45456 12.3245 7.49365 14.3636 10 14.3636C12.5064 14.3636 14.5455 12.3245 14.5455 9.81818C14.5455 9.31609 14.1385 8.90909 13.6364 8.90909Z" fill="#76533F"/>
<path d="M19.9783 20.2008L18.1745 6.06673C18.1167 5.61364 17.7247 5.27273 17.2727 5.27273H14.5455V4.54545C14.5455 2.03909 12.5064 0 10 0C7.49364 0 5.45455 2.03909 5.45455 4.54545V5.27273H2.72727C2.26573 5.27273 1.88236 5.621 1.8255 6.06673L0.0215 20.2022C0.00722725 20.3154 0 20.4309 0 20.5455C0 22.0493 1.22345 23.2727 2.72727 23.2727H17.2727C18.7765 23.2727 20 22.0493 20 20.5455C20 20.431 19.9928 20.3156 19.9783 20.2008ZM7.27273 4.54545C7.27273 3.04164 8.49618 1.81818 10 1.81818C11.5038 1.81818 12.7273 3.04164 12.7273 4.54545V5.27273H7.27273V4.54545ZM17.2727 21.4545H2.72727C2.226 21.4545 1.81818 21.0467 1.81818 20.5455C1.81818 20.5066 1.82064 20.4676 1.82523 20.431L3.52773 7.09091H16.4723L18.1745 20.4293C18.1793 20.4675 18.1818 20.5065 18.1818 20.5455C18.1818 21.0467 17.774 21.4545 17.2727 21.4545Z" fill="#76533F"/>
</svg>
