<svg width="17" height="19" viewBox="0 0 17 19" fill="none" xmlns="http://www.w3.org/2000/svg">
<path d="M11.7051 8.4808C11.7051 8.08406 11.3835 7.76245 10.9867 7.76245H3.58774C3.19099 7.76245 2.86938 8.08406 2.86938 8.4808C2.86938 8.87755 3.19099 9.19915 3.58774 9.19915H10.9867C11.3835 9.19915 11.7051 8.87755 11.7051 8.4808Z" fill="#EABEA1"/>
<path d="M3.58774 10.6357C3.19099 10.6357 2.86938 10.9573 2.86938 11.3541C2.86938 11.7508 3.19099 12.0724 3.58774 12.0724H8.08141C8.47816 12.0724 8.79976 11.7508 8.79976 11.3541C8.79976 10.9573 8.47816 10.6357 8.08141 10.6357H3.58774Z" fill="#EABEA1"/>
<path d="M5.27589 17.532H2.8734C2.0812 17.532 1.4367 16.8875 1.4367 16.0953V3.45238C1.4367 2.66018 2.0812 2.01568 2.8734 2.01568H11.7051C12.4973 2.01568 13.1418 2.66018 13.1418 3.45238V7.87024C13.1418 8.26698 13.4634 8.58859 13.8602 8.58859C14.2569 8.58859 14.5785 8.26698 14.5785 7.87024V3.45238C14.5785 1.86799 13.2895 0.578979 11.7051 0.578979H2.8734C1.28901 0.578979 0 1.86799 0 3.45238V16.0953C0 17.6797 1.28901 18.9688 2.8734 18.9688H5.27589C5.67263 18.9688 5.99424 18.6471 5.99424 18.2504C5.99424 17.8537 5.67263 17.532 5.27589 17.532Z" fill="#EABEA1"/>
<path d="M15.8509 10.9796C15.0106 10.1394 13.6435 10.1394 12.8038 10.9791L8.85991 14.9142C8.77615 14.9978 8.71438 15.1007 8.67997 15.2139L7.82107 18.0415C7.74493 18.2922 7.81127 18.5645 7.99423 18.752C8.13129 18.8925 8.31749 18.9687 8.50846 18.9687C8.57236 18.9687 8.63687 18.9602 8.70019 18.9426L11.5996 18.1394C11.7189 18.1064 11.8277 18.0431 11.9153 17.9556L15.8509 14.0274C16.6912 13.1871 16.6912 11.82 15.8509 10.9796ZM11.0341 16.8053L9.57539 17.2094L10.0023 15.804L12.6634 13.1488L13.6795 14.1649L11.0341 16.8053ZM14.8355 13.0111L14.6964 13.15L13.6804 12.134L13.8192 11.9956C14.0992 11.7155 14.555 11.7155 14.835 11.9956C15.1151 12.2757 15.1151 12.7314 14.8355 13.0111Z" fill="#EABEA1"/>
<path d="M10.9867 4.88904H3.58774C3.19099 4.88904 2.86938 5.21064 2.86938 5.60739C2.86938 6.00413 3.19099 6.32574 3.58774 6.32574H10.9867C11.3835 6.32574 11.7051 6.00413 11.7051 5.60739C11.7051 5.21064 11.3835 4.88904 10.9867 4.88904Z" fill="#EABEA1"/>
</svg>
