<svg width="17" height="19" viewBox="0 0 17 19" fill="none" xmlns="http://www.w3.org/2000/svg">
<path d="M11.7051 8.48074C11.7051 8.084 11.3835 7.76239 10.9868 7.76239H3.58777C3.19102 7.76239 2.86942 8.084 2.86942 8.48074C2.86942 8.87749 3.19102 9.19909 3.58777 9.19909H10.9868C11.3835 9.19909 11.7051 8.87749 11.7051 8.48074Z" fill="white"/>
<path d="M3.58777 10.6358C3.19102 10.6358 2.86942 10.9574 2.86942 11.3542C2.86942 11.7509 3.19102 12.0725 3.58777 12.0725H8.08144C8.47819 12.0725 8.79979 11.7509 8.79979 11.3542C8.79979 10.9574 8.47819 10.6358 8.08144 10.6358H3.58777Z" fill="white"/>
<path d="M5.27589 17.532H2.8734C2.0812 17.532 1.4367 16.8875 1.4367 16.0953V3.45238C1.4367 2.66018 2.0812 2.01568 2.8734 2.01568H11.7051C12.4973 2.01568 13.1418 2.66018 13.1418 3.45238V7.87024C13.1418 8.26698 13.4634 8.58859 13.8602 8.58859C14.2569 8.58859 14.5785 8.26698 14.5785 7.87024V3.45238C14.5785 1.86799 13.2895 0.578979 11.7051 0.578979H2.8734C1.28901 0.578979 0 1.86799 0 3.45238V16.0953C0 17.6797 1.28901 18.9688 2.8734 18.9688H5.27589C5.67263 18.9688 5.99424 18.6471 5.99424 18.2504C5.99424 17.8537 5.67263 17.532 5.27589 17.532Z" fill="white"/>
<path d="M15.8509 10.9797C15.0107 10.1394 13.6435 10.1394 12.8038 10.9791L8.85994 14.9142C8.77618 14.9978 8.71441 15.1007 8.68 15.214L7.8211 18.0416C7.74496 18.2923 7.8113 18.5645 7.99426 18.752C8.13132 18.8925 8.31752 18.9687 8.50849 18.9687C8.57239 18.9687 8.6369 18.9602 8.70022 18.9426L11.5997 18.1395C11.719 18.1064 11.8277 18.0431 11.9154 17.9556L15.851 14.0274C16.6912 13.1872 16.6912 11.82 15.8509 10.9797ZM11.0341 16.8054L9.57542 17.2094L10.0023 15.804L12.6634 13.1488L13.6795 14.1649L11.0341 16.8054ZM14.8356 13.0111L14.6964 13.15L13.6805 12.1341L13.8192 11.9956C14.0993 11.7156 14.555 11.7156 14.8351 11.9956C15.1152 12.2757 15.1152 12.7314 14.8356 13.0111Z" fill="white"/>
<path d="M10.9868 4.88901H3.58777C3.19102 4.88901 2.86942 5.21061 2.86942 5.60736C2.86942 6.0041 3.19102 6.32571 3.58777 6.32571H10.9868C11.3835 6.32571 11.7051 6.0041 11.7051 5.60736C11.7051 5.21061 11.3835 4.88901 10.9868 4.88901Z" fill="white"/>
</svg>
