<svg width="17" height="19" viewBox="0 0 17 19" fill="none" xmlns="http://www.w3.org/2000/svg">
<path fill-rule="evenodd" clip-rule="evenodd" d="M8.3414 0.391724C11.5656 0.391724 14.1793 3.03175 14.1793 6.28838C14.1793 8.65693 14.5902 10.4581 15.269 11.7742C15.5024 12.227 15.7511 12.5876 15.9988 12.8661L16.0692 12.9432L16.1905 13.0657C16.2083 13.0826 16.2249 13.0978 16.2401 13.1112L16.3233 13.1781C16.9672 13.6302 16.6889 14.6281 15.9429 14.7072L15.8473 14.7122H0.835523C0.0433767 14.7122 -0.286934 13.716 0.295341 13.2272L0.391657 13.1549L0.457802 13.0978L0.558759 12.9999C0.57826 12.9801 0.599042 12.9585 0.62102 12.9351C0.865158 12.6748 1.11562 12.329 1.35435 11.887C2.0317 10.6327 2.45919 8.91334 2.50025 6.65024L2.5035 6.28838C2.5035 3.03175 5.11722 0.391724 8.3414 0.391724ZM9.78415 16.3969C10.4269 16.3969 10.8281 17.1003 10.5056 17.6619C10.058 18.4413 9.23339 18.921 8.34136 18.921C7.44932 18.921 6.62476 18.4413 6.17716 17.6619C5.87077 17.1284 6.21749 16.4668 6.80402 16.402L6.89856 16.3969H9.78415ZM4.17555 6.10567C4.27026 3.86427 6.09924 2.07648 8.34163 2.07648C10.6446 2.07648 12.5116 3.96221 12.5116 6.28838C12.5116 8.92051 12.9834 10.9888 13.7899 12.5526L13.9197 12.7946L14.0544 13.0266H2.62798L2.70361 12.9005L2.81888 12.6937C3.6696 11.1183 4.17169 9.00526 4.17169 6.28838L4.17555 6.10567Z" fill="#EABEA1"/>
</svg>
