<svg width="16" height="16" viewBox="0 0 16 16" fill="none" xmlns="http://www.w3.org/2000/svg">
<path d="M11.402 15.5745C8.75703 15.5745 5.93254 14.6027 3.72414 12.3943C1.51943 10.1896 0.543945 7.36697 0.543945 4.71652C0.543945 2.38062 2.43379 0.486877 4.77359 0.486877C4.95435 0.486877 5.11686 0.596911 5.18399 0.764732L7.07782 5.49928C7.16849 5.72595 7.05825 5.98318 6.83161 6.07385L4.75125 6.90597C4.89842 9.29931 6.81956 11.2203 9.21252 11.3673L10.0447 9.28694C10.1351 9.06065 10.3923 8.95 10.6192 9.0407L15.3537 10.9345C15.5215 11.0016 15.6316 11.1641 15.6316 11.3449C15.6316 13.6808 13.7418 15.5745 11.402 15.5745ZM4.47941 1.38359C2.78653 1.53008 1.42799 2.94967 1.42799 4.71652C1.42799 7.38067 2.46544 9.88537 4.34928 11.7692C6.23309 13.653 8.73779 14.6905 11.402 14.6905C13.1683 14.6905 14.5883 13.3327 14.7349 11.6391L10.7013 10.0256L9.91854 11.9825C9.85145 12.1503 9.6889 12.2604 9.50814 12.2604C6.39251 12.2604 3.85813 9.72598 3.85813 6.61082C3.85813 6.43009 3.96817 6.26705 4.13599 6.19995L6.09285 5.41719L4.47941 1.38359Z" fill="white"/>
</svg>
