<svg width="12" height="12" viewBox="0 0 12 12" fill="none" xmlns="http://www.w3.org/2000/svg">
<path d="M6.00006 8.29761C7.26903 8.29761 8.29773 7.26891 8.29773 5.99994C8.29773 4.73097 7.26903 3.70227 6.00006 3.70227C4.73109 3.70227 3.70239 4.73097 3.70239 5.99994C3.70239 7.26891 4.73109 8.29761 6.00006 8.29761Z" fill="#76533F"/>
<path d="M11.68 5.67997H11.3209C11.161 2.99475 9.00525 0.83892 6.32003 0.679098V0.320027C6.32003 0.143308 6.17678 0 6 0C5.82322 0 5.67997 0.143308 5.67997 0.320027V0.679098C2.99475 0.838984 0.83892 2.99475 0.679098 5.67997H0.320027C0.143244 5.67997 0 5.82328 0 6C0 6.17672 0.143244 6.32003 0.320027 6.32003H0.679098C0.838984 9.00525 2.99475 11.1611 5.67997 11.3209V11.68C5.67997 11.8567 5.82322 12 6 12C6.17678 12 6.32003 11.8567 6.32003 11.68V11.3209C9.00525 11.161 11.1611 9.00525 11.3209 6.32003H11.68C11.8568 6.32003 12 6.17672 12 6C12 5.82328 11.8568 5.67997 11.68 5.67997ZM6.32003 10.3583V9.80653C6.32003 9.62981 6.17678 9.48651 6 9.48651C5.82322 9.48651 5.67997 9.62981 5.67997 9.80653V10.3583C3.52446 10.2014 1.79855 8.4756 1.64168 6.32003H2.19353C2.37031 6.32003 2.51356 6.17672 2.51356 6C2.51356 5.82328 2.37031 5.67997 2.19353 5.67997H1.64168C1.79855 3.52446 3.52446 1.79855 5.67997 1.64168V2.19347C5.67997 2.37019 5.82322 2.51349 6 2.51349C6.17678 2.51349 6.32003 2.37019 6.32003 2.19347V1.64168C8.47554 1.79855 10.2014 3.52446 10.3583 5.67997H9.80647C9.62969 5.67997 9.48644 5.82328 9.48644 6C9.48644 6.17672 9.62969 6.32003 9.80647 6.32003H10.3583C10.2014 8.4756 8.47554 10.2014 6.32003 10.3583Z" fill="#76533F"/>
</svg>
