<svg width="17" height="19" viewBox="0 0 17 19" fill="none" xmlns="http://www.w3.org/2000/svg">
<path fill-rule="evenodd" clip-rule="evenodd" d="M8.33968 0.391724C10.8706 0.391724 12.9265 2.44275 12.9265 4.97808C12.9265 7.51342 10.8706 9.56445 8.33968 9.56445C5.80875 9.56445 3.75285 7.51342 3.75285 4.97808C3.75285 2.44275 5.80875 0.391724 8.33968 0.391724ZM16.6626 15.8256C16.4571 13.4531 14.4803 11.6236 12.0926 11.6236H4.58683L4.39113 11.6279L4.20304 11.6404C1.83436 11.8449 0 13.8179 0 16.21V18.082L0.00561072 18.1802C0.053785 18.5992 0.40628 18.9244 0.833969 18.9244H15.8454L15.9427 18.9187C16.3574 18.8701 16.6794 18.514 16.6794 18.082V16.21L16.6751 16.014L16.6626 15.8256ZM4.6057 13.3082L12.0924 13.3084L12.253 13.3127C13.7424 13.3931 14.939 14.585 15.0081 16.0732L15.0115 16.2297L15.0113 17.2396H1.66777V16.21L1.67211 16.0507C1.7527 14.5742 2.94717 13.381 4.44813 13.3116L4.6057 13.3082ZM5.42083 4.97806C5.42083 3.37792 6.72536 2.07648 8.33972 2.07648C9.95408 2.07648 11.2586 3.37792 11.2586 4.97806C11.2586 6.57819 9.95408 7.87963 8.33972 7.87963C6.72536 7.87963 5.42083 6.57819 5.42083 4.97806Z" fill="white"/>
</svg>
