<svg width="17" height="19" viewBox="0 0 17 19" fill="none" xmlns="http://www.w3.org/2000/svg">
<path fill-rule="evenodd" clip-rule="evenodd" d="M8.33961 0.391724C10.8705 0.391724 12.9264 2.44275 12.9264 4.97808C12.9264 7.51342 10.8705 9.56445 8.33961 9.56445C5.80867 9.56445 3.75278 7.51342 3.75278 4.97808C3.75278 2.44275 5.80867 0.391724 8.33961 0.391724ZM16.6625 15.8256C16.457 13.4531 14.4802 11.6236 12.0925 11.6236H4.58676L4.39106 11.6279L4.20297 11.6404C1.83429 11.8449 -7.17571e-05 13.8179 -7.17571e-05 16.21V18.082L0.00553896 18.1802C0.0537133 18.5992 0.406208 18.9244 0.833897 18.9244H15.8453L15.9426 18.9187C16.3574 18.8701 16.6793 18.514 16.6793 18.082V16.21L16.675 16.014L16.6625 15.8256ZM4.60563 13.3082L12.0923 13.3084L12.253 13.3127C13.7423 13.3931 14.9389 14.585 15.008 16.0732L15.0114 16.2297L15.0112 17.2396H1.6677V16.21L1.67204 16.0507C1.75263 14.5742 2.9471 13.381 4.44806 13.3116L4.60563 13.3082ZM5.42076 4.97806C5.42076 3.37792 6.72529 2.07648 8.33965 2.07648C9.95401 2.07648 11.2585 3.37792 11.2585 4.97806C11.2585 6.57819 9.95401 7.87963 8.33965 7.87963C6.72529 7.87963 5.42076 6.57819 5.42076 4.97806Z" fill="#EABEA1"/>
</svg>
