<svg width="272" height="232" viewBox="0 0 272 232" fill="none" xmlns="http://www.w3.org/2000/svg">
<g opacity="0.4" filter="url(#filter0_f_401_2237)">
<ellipse cx="143.346" cy="194.285" rx="107.377" ry="20.6292" fill="#AAAAAA"/>
</g>
<g clip-path="url(#clip0_401_2237)">
<path d="M16.4293 33.125C50.656 40.5565 60.6133 30.3984 68.941 1.50511C73.1957 31.9064 60.185 55.9512 36.4496 45.7353C57.1354 66.5888 43.0587 90.5123 21.3866 99.1101C45.5225 108.628 36.9093 122.884 15.0834 139.608C26.3922 118.866 27.7344 109.492 0.00561523 100.11C29.6068 83.7098 34.8571 61.4137 16.4293 33.125Z" fill="#EABEA1"/>
<path d="M255.451 31.7813C221.224 39.2128 211.267 29.0529 202.939 0.152084C198.675 30.5533 211.695 54.6 235.43 44.3823C214.745 65.2377 228.821 89.1593 250.493 97.7571C226.357 107.275 234.972 121.533 256.797 138.255C245.488 117.513 244.147 108.139 271.874 98.7574C242.273 82.3661 237.023 60.07 255.451 31.7813Z" fill="#EABEA1"/>
<path d="M139.189 139.781L204.365 117.913V183.523L139.189 205.393V139.781Z" fill="#89604C"/>
<path d="M139.189 205.393L74.0132 183.523V117.913L139.189 139.781V205.393Z" fill="#664534"/>
<path d="M117.463 74.1714L52.2874 96.042L74.0132 117.913L139.189 96.042L117.463 74.1714Z" fill="#664534"/>
<path d="M160.915 74.1714L226.091 96.042L204.365 117.913L139.189 96.042L160.915 74.1714Z" fill="#89604C"/>
<path d="M160.915 161.652L226.091 139.781L204.365 117.913L139.189 139.781L160.915 161.652Z" fill="#664534"/>
<path d="M117.463 161.652L52.2874 139.781L74.0132 117.913L139.189 139.781L117.463 161.652Z" fill="#89604C"/>
<path d="M129.919 191.281C129.793 191.28 129.668 191.26 129.549 191.221L106.232 183.396C105.94 183.297 105.7 183.085 105.563 182.808C105.427 182.53 105.405 182.209 105.503 181.916C105.602 181.622 105.812 181.38 106.088 181.243C106.363 181.105 106.682 181.083 106.974 181.182L130.285 189.017C130.546 189.105 130.768 189.283 130.91 189.521C131.053 189.758 131.107 190.039 131.062 190.313C131.017 190.586 130.877 190.835 130.667 191.014C130.456 191.193 130.189 191.291 129.914 191.29L129.919 191.281Z" fill="#EABEA1"/>
<path d="M129.919 182.129C129.793 182.129 129.668 182.109 129.549 182.069L117.89 178.15C117.598 178.051 117.357 177.839 117.221 177.562C117.084 177.284 117.063 176.963 117.161 176.67C117.259 176.376 117.469 176.134 117.745 175.997C118.021 175.859 118.34 175.837 118.631 175.936L130.29 179.855C130.552 179.943 130.774 180.122 130.916 180.359C131.059 180.597 131.112 180.877 131.068 181.151C131.023 181.425 130.883 181.674 130.672 181.853C130.462 182.032 130.195 182.13 129.919 182.129Z" fill="#EABEA1"/>
<path d="M183.438 169.225L195.097 165.314V176.797L183.438 180.71V169.225Z" fill="#EABEA1"/>
<path d="M139.189 139.781L204.365 117.913L139.189 96.042V139.781Z" fill="#1C0800"/>
<path d="M139.189 96.042V137.814H133.321L119.882 133.306L109.417 129.793L108.119 129.358L105.607 128.515L74.0132 117.913L105.607 107.31L108.119 106.467L109.417 106.032L119.284 102.721L130.522 98.9497L139.189 96.042Z" fill="#3D1706"/>
<path d="M102.673 79.1356C103.599 88.6465 107.734 97.5509 114.389 104.366L139.193 96.042L117.463 74.1714L102.673 79.1356Z" fill="#664534"/>
<path d="M139.189 116.748V96.0327L114.389 104.366C121.011 111.22 129.761 115.589 139.189 116.748Z" fill="#3D1706"/>
<path d="M139.189 96.042L171.391 106.848C178.677 100.529 183.566 91.8672 185.231 82.3325L160.922 74.1714L139.189 96.042Z" fill="#4183D7"/>
<path d="M171.391 106.848L139.189 96.042V116.757C144.946 117.497 150.794 116.998 156.345 115.293C161.896 113.587 167.025 110.715 171.391 106.866V106.848Z" fill="#2C3E50"/>
<path d="M139.189 96.042L194.806 114.705V85.5444L160.915 74.1714L139.189 96.042Z" fill="#664534"/>
<path d="M194.806 114.705V121.121L174.192 128.037L171.682 128.881L170.383 129.315L167.85 130.166L164.072 131.434L145.057 137.814H139.189V96.042L142.732 97.2308L144.74 97.9046L164.072 104.392L167.85 105.659L170.383 106.51L171.682 106.945L174.192 107.788L194.806 114.705Z" fill="#1C0800"/>
<path d="M142.012 30.6747C141.2 29.7315 140.094 29.0923 138.875 28.8607C138.33 28.9666 137.804 29.1554 137.315 29.4205L130.92 42.6709H152.394L142.012 30.6747ZM139.893 36.8464C139.355 36.8467 138.829 36.6864 138.381 36.3855C137.933 36.0847 137.584 35.657 137.378 35.1564C137.171 34.6558 137.117 34.1049 137.222 33.5734C137.327 33.0418 137.586 32.5535 137.966 32.1701C138.347 31.7868 138.832 31.5257 139.36 31.4198C139.888 31.314 140.435 31.3681 140.932 31.5754C141.43 31.7827 141.855 32.1339 142.154 32.5844C142.453 33.035 142.613 33.5648 142.613 34.1067C142.613 34.832 142.327 35.5277 141.818 36.0413C141.31 36.5549 140.619 36.8444 139.899 36.8464H139.893Z" fill="white"/>
<path d="M136.54 29.9058C136.679 29.7994 136.829 29.7191 136.974 29.6258C136.822 29.7173 136.679 29.7994 136.54 29.9058Z" fill="#B6DBF5"/>
<path d="M137.322 29.4224L137.337 29.3925L136.966 29.6258C136.821 29.7154 136.671 29.7994 136.532 29.9058C136.23 30.1325 135.953 30.3901 135.704 30.6746L125.344 42.6653H130.926L137.322 29.4224Z" fill="#D1D3D4"/>
<path d="M105.605 107.497V50.7033C105.605 48.5718 106.446 46.5276 107.943 45.0203C109.441 43.5129 111.471 42.6658 113.588 42.6653H125.344L105.605 107.497Z" fill="#B6DBF5"/>
<path d="M154.569 42.7978L155.272 43.6115H153.206L152.394 42.6653H130.926C130.783 43.4529 130.659 44.2423 130.531 45.0317H160.707C159.068 43.8877 156.946 43.0946 154.569 42.7978Z" fill="#D1D3D4"/>
<path d="M171.576 51.545V50.7033C171.576 48.5718 170.735 46.5276 169.238 45.0203C167.741 43.5129 165.711 42.6658 163.594 42.6653H156.315C159.532 42.6653 162.433 43.5873 164.532 45.0672C166.273 45.1481 167.931 45.8404 169.218 47.0237C170.505 48.207 171.339 49.8067 171.576 51.545Z" fill="#D1D3D4"/>
<path d="M130.926 42.6653C130.783 43.4529 130.657 44.2423 130.529 45.0317H115.617C114.631 45.03 113.655 45.2241 112.745 45.6029C111.834 45.9816 111.007 46.5376 110.31 47.2389C109.613 47.9403 109.061 48.7732 108.685 49.6898C108.309 50.6065 108.116 51.5889 108.118 52.5807V129.545L105.605 128.701V50.7033C105.605 48.5718 106.446 46.5276 107.943 45.0203C109.441 43.5129 111.471 42.6658 113.588 42.6653H130.926Z" fill="#D1D3D4"/>
<path d="M152.394 42.6653L153.214 43.6115H155.279L154.576 42.7978C153.9 42.7124 153.219 42.6681 152.537 42.6653H154.456L144.089 30.6746C143.843 30.4 143.572 30.15 143.279 29.9281L143.093 29.7938C142.817 29.5949 142.523 29.4224 142.214 29.2787L142.011 29.1966C141.736 29.0816 141.453 28.9893 141.163 28.9204L140.995 28.8756C140.682 28.8147 140.364 28.7816 140.045 28.7767H139.747C139.449 28.781 139.152 28.8097 138.859 28.8625H138.874C140.093 29.0946 141.199 29.7337 142.012 30.6765L152.394 42.6653Z" fill="#D1D3D4"/>
<path d="M139.899 36.8464C140.437 36.8467 140.964 36.6864 141.411 36.3855C141.859 36.0847 142.208 35.657 142.415 35.1564C142.621 34.6558 142.675 34.1049 142.57 33.5734C142.465 33.0418 142.206 32.5535 141.826 32.1701C141.445 31.7868 140.96 31.5257 140.432 31.4198C139.904 31.314 139.357 31.3681 138.86 31.5754C138.362 31.7827 137.937 32.1339 137.638 32.5844C137.339 33.035 137.179 33.5648 137.179 34.1067C137.179 34.833 137.466 35.5295 137.976 36.0433C138.486 36.557 139.177 36.8459 139.899 36.8464Z" fill="#D1D3D4"/>
<path d="M174.191 50.7033V128.224L171.68 129.067V52.5807C171.67 52.2335 171.635 51.8874 171.577 51.545V50.7033C171.577 48.5718 170.736 46.5276 169.239 45.0203C167.742 43.5129 165.711 42.6658 163.594 42.6653H166.208C167.256 42.6653 168.294 42.8732 169.263 43.2772C170.232 43.6812 171.112 44.2733 171.853 45.0197C172.594 45.7661 173.182 46.6522 173.584 47.6274C173.985 48.6026 174.191 49.6478 174.191 50.7033Z" fill="#D1D3D4"/>
<path d="M129.007 79.9307H164.074V50.7033C164.074 48.4899 162.787 46.4855 160.709 45.0317H130.518C128.664 56.5129 128.446 68.2703 129.007 79.9307Z" fill="white"/>
<path d="M171.675 52.5807V129.067L170.377 129.502V79.9307H167.845V50.7033C167.845 48.5067 166.578 46.5173 164.528 45.0672C166.429 45.2153 168.209 46.0636 169.527 47.4497C170.846 48.8359 171.61 50.6627 171.675 52.5807Z" fill="white"/>
<path d="M119.241 52.5807V79.9307H129.007C128.446 68.2703 128.664 56.5129 130.518 45.0317H126.74C125.755 45.0315 124.78 45.2266 123.87 45.6059C122.96 45.9852 122.133 46.5412 121.437 47.2422C120.74 47.9433 120.188 48.7756 119.811 49.6916C119.435 50.6076 119.241 51.5893 119.241 52.5807Z" fill="#D1D3D4"/>
<path d="M126.74 45.0317C125.755 45.0315 124.78 45.2266 123.87 45.6058C122.96 45.9851 122.133 46.5411 121.436 47.2421C120.74 47.9431 120.187 48.7754 119.81 49.6914C119.433 50.6074 119.239 51.5892 119.239 52.5807V79.9307H109.413V129.98L108.116 129.545V52.5807C108.116 50.5788 108.906 48.6589 110.313 47.2433C111.719 45.8277 113.626 45.0322 115.615 45.0317H126.74Z" fill="white"/>
<path d="M154.569 42.7978C156.946 43.0946 159.074 43.8877 160.707 45.0373C162.785 46.4912 164.072 48.4955 164.072 50.7089V79.9307H167.85V50.7033C167.85 48.5067 166.582 46.5173 164.532 45.0672C162.441 43.5873 159.526 42.6653 156.315 42.6653H152.535C153.215 42.6684 153.894 42.7126 154.569 42.7978Z" fill="#D1D3D4"/>
<path d="M128.991 79.9307C129.245 85.1842 129.658 90.4171 130.168 95.5848C130.285 96.7668 130.403 97.9487 130.52 99.1307C131.818 112.041 136.766 127.124 139.189 139.964L145.055 137.995L164.074 131.62V79.9381H167.852V130.353L170.385 129.502V79.9307H128.991ZM158.698 85.7478C158.995 85.7478 159.286 85.8366 159.533 86.003C159.78 86.1694 159.973 86.4059 160.087 86.6825C160.201 86.9592 160.23 87.2636 160.172 87.5573C160.114 87.8509 159.971 88.1206 159.76 88.3322C159.55 88.5438 159.282 88.6878 158.99 88.746C158.698 88.8042 158.396 88.7739 158.121 88.6591C157.846 88.5443 157.612 88.35 157.447 88.1008C157.282 87.8517 157.194 87.5589 157.194 87.2594C157.194 87.0608 157.233 86.864 157.309 86.6805C157.384 86.497 157.495 86.3303 157.635 86.1899C157.774 86.0495 157.94 85.9382 158.122 85.8623C158.305 85.7865 158.5 85.7475 158.698 85.7478ZM160.199 95.7248C160.199 95.8746 160.154 96.0209 160.071 96.1451C159.988 96.2694 159.87 96.3659 159.732 96.4226C159.595 96.4792 159.443 96.4934 159.297 96.4632C159.152 96.4331 159.018 96.36 158.914 96.2533C158.809 96.1466 158.739 96.011 158.711 95.8639C158.683 95.7167 158.699 95.5645 158.758 95.4267C158.816 95.2889 158.914 95.1716 159.038 95.0898C159.163 95.0079 159.309 94.9652 159.458 94.9671C159.555 94.968 159.652 94.9884 159.742 95.0271C159.832 95.0657 159.913 95.1219 159.981 95.1923C160.049 95.2627 160.103 95.346 160.139 95.4374C160.175 95.5288 160.193 95.6264 160.192 95.7248H160.199ZM148.357 87.4498C148.476 87.4498 148.594 87.4856 148.693 87.5527C148.793 87.6197 148.871 87.715 148.917 87.8265C148.963 87.938 148.975 88.0607 148.951 88.1791C148.928 88.2975 148.87 88.4062 148.785 88.4916C148.7 88.5769 148.592 88.6351 148.475 88.6586C148.357 88.6822 148.235 88.6701 148.125 88.6239C148.014 88.5777 147.919 88.4995 147.852 88.3991C147.786 88.2987 147.75 88.1808 147.75 88.0601C147.75 87.8995 147.813 87.7454 147.925 87.6312C148.037 87.5169 148.19 87.4518 148.349 87.4498H148.357ZM148.965 93.7391C149.338 93.7391 149.704 93.8507 150.014 94.0597C150.325 94.2688 150.567 94.5659 150.71 94.9135C150.853 95.2611 150.89 95.6435 150.817 96.0125C150.744 96.3814 150.564 96.7203 150.3 96.9862C150.035 97.252 149.699 97.433 149.332 97.5062C148.965 97.5793 148.586 97.5414 148.24 97.3972C147.895 97.253 147.6 97.0089 147.393 96.696C147.186 96.383 147.075 96.0151 147.076 95.6389C147.076 95.136 147.274 94.6536 147.626 94.2975C147.979 93.9414 148.458 93.7406 148.957 93.7391H148.965ZM141.901 89.7192C142.296 89.7188 142.682 89.8364 143.011 90.057C143.34 90.2776 143.596 90.5914 143.747 90.9587C143.899 91.3259 143.938 91.7301 143.862 92.1201C143.785 92.5101 143.595 92.8684 143.316 93.1497C143.036 93.431 142.681 93.6226 142.293 93.7003C141.906 93.778 141.504 93.7383 141.139 93.5863C140.775 93.4342 140.463 93.1766 140.243 92.846C140.024 92.5154 139.906 92.1267 139.906 91.7291C139.907 91.1978 140.116 90.6883 140.489 90.3117C140.861 89.9351 141.366 89.7221 141.894 89.7192H141.901ZM143.014 106.338C142.794 106.338 142.579 106.272 142.396 106.149C142.213 106.026 142.07 105.852 141.986 105.647C141.902 105.442 141.88 105.217 141.923 105C141.966 104.783 142.072 104.583 142.227 104.427C142.383 104.27 142.581 104.163 142.797 104.12C143.012 104.077 143.236 104.099 143.439 104.184C143.643 104.269 143.816 104.412 143.938 104.596C144.061 104.78 144.126 104.997 144.126 105.218C144.126 105.367 144.098 105.514 144.041 105.651C143.985 105.788 143.902 105.912 143.798 106.017C143.693 106.121 143.569 106.204 143.432 106.26C143.296 106.315 143.15 106.343 143.002 106.342L143.014 106.338ZM143.903 114.628C143.904 114.359 143.983 114.097 144.132 113.874C144.28 113.651 144.491 113.477 144.738 113.374C144.985 113.272 145.256 113.245 145.518 113.298C145.779 113.35 146.02 113.48 146.208 113.67C146.397 113.86 146.525 114.102 146.577 114.366C146.629 114.629 146.602 114.902 146.5 115.15C146.398 115.398 146.225 115.61 146.003 115.76C145.781 115.909 145.52 115.989 145.253 115.989C145.075 115.99 144.898 115.956 144.733 115.888C144.568 115.82 144.417 115.72 144.291 115.594C144.164 115.467 144.064 115.317 143.996 115.151C143.927 114.985 143.892 114.808 143.892 114.628H143.903ZM147.163 125.557C146.806 125.557 146.456 125.45 146.159 125.25C145.863 125.051 145.631 124.767 145.494 124.435C145.358 124.103 145.322 123.737 145.392 123.384C145.461 123.032 145.633 122.708 145.886 122.454C146.138 122.2 146.46 122.026 146.81 121.956C147.161 121.886 147.524 121.922 147.854 122.06C148.184 122.197 148.466 122.43 148.664 122.729C148.862 123.028 148.968 123.38 148.968 123.739C148.969 123.979 148.923 124.217 148.832 124.44C148.741 124.662 148.607 124.863 148.438 125.033C148.269 125.203 148.069 125.337 147.848 125.428C147.627 125.52 147.39 125.566 147.152 125.564L147.163 125.557ZM149.46 110.403C148.988 110.404 148.527 110.264 148.135 110C147.743 109.737 147.437 109.363 147.256 108.925C147.075 108.486 147.027 108.004 147.119 107.538C147.211 107.073 147.438 106.645 147.771 106.31C148.104 105.974 148.529 105.745 148.991 105.653C149.453 105.56 149.933 105.608 150.368 105.789C150.803 105.971 151.176 106.279 151.437 106.673C151.699 107.068 151.839 107.532 151.838 108.007C151.838 108.322 151.776 108.634 151.656 108.926C151.536 109.217 151.36 109.482 151.138 109.704C150.916 109.927 150.652 110.103 150.362 110.223C150.072 110.343 149.762 110.404 149.448 110.403H149.46ZM152.546 102.729C152.547 102.456 152.627 102.19 152.778 101.964C152.928 101.738 153.142 101.562 153.392 101.458C153.642 101.354 153.917 101.327 154.183 101.38C154.448 101.433 154.691 101.565 154.883 101.757C155.074 101.95 155.204 102.196 155.257 102.463C155.309 102.73 155.282 103.007 155.178 103.258C155.075 103.51 154.899 103.725 154.674 103.876C154.45 104.027 154.185 104.108 153.915 104.108C153.734 104.109 153.555 104.075 153.387 104.006C153.22 103.938 153.067 103.836 152.939 103.708C152.811 103.58 152.709 103.427 152.64 103.259C152.571 103.091 152.535 102.911 152.535 102.729H152.546ZM154.804 125.564C154.626 125.565 154.451 125.512 154.302 125.412C154.154 125.312 154.038 125.171 153.969 125.005C153.9 124.838 153.882 124.656 153.917 124.479C153.951 124.303 154.037 124.141 154.163 124.013C154.29 123.886 154.451 123.799 154.626 123.764C154.801 123.729 154.983 123.747 155.148 123.816C155.313 123.884 155.454 124.001 155.553 124.15C155.652 124.3 155.705 124.476 155.705 124.655C155.705 124.896 155.611 125.127 155.442 125.297C155.273 125.468 155.044 125.564 154.804 125.564ZM157.418 117.864C156.868 117.864 156.331 117.7 155.873 117.392C155.416 117.085 155.06 116.648 154.849 116.136C154.639 115.625 154.584 115.062 154.691 114.519C154.798 113.976 155.063 113.477 155.452 113.085C155.841 112.694 156.336 112.427 156.876 112.319C157.415 112.211 157.974 112.267 158.483 112.478C158.991 112.69 159.425 113.049 159.731 113.509C160.036 113.97 160.199 114.511 160.199 115.065C160.2 115.432 160.128 115.796 159.988 116.135C159.848 116.474 159.644 116.782 159.386 117.041C159.127 117.301 158.821 117.506 158.484 117.646C158.146 117.786 157.785 117.858 157.42 117.857L157.418 117.864ZM160.199 125.266C160.079 125.266 159.962 125.23 159.862 125.163C159.763 125.096 159.685 125 159.639 124.889C159.593 124.777 159.581 124.655 159.605 124.536C159.628 124.418 159.686 124.309 159.771 124.224C159.855 124.139 159.963 124.08 160.081 124.057C160.199 124.033 160.32 124.045 160.431 124.092C160.542 124.138 160.637 124.216 160.703 124.316C160.77 124.417 160.805 124.535 160.805 124.655C160.805 124.736 160.788 124.815 160.757 124.888C160.725 124.962 160.68 125.029 160.623 125.085C160.566 125.141 160.498 125.185 160.424 125.215C160.35 125.244 160.271 125.259 160.192 125.258L160.199 125.266ZM144.73 98.1621C144.723 98.2039 144.71 98.2446 144.693 98.2834C144.673 98.3401 144.647 98.3945 144.615 98.4458C144.6 98.4724 144.584 98.4979 144.565 98.5223C144.513 98.5987 144.451 98.6677 144.38 98.7276C144.354 98.7497 144.327 98.7703 144.298 98.7892C144.271 98.8083 144.243 98.8258 144.213 98.8414H144.202C144.178 98.8557 144.152 98.8682 144.126 98.8787C144.088 98.8955 144.049 98.9098 144.009 98.9217C143.978 98.9324 143.947 98.9405 143.915 98.9459C143.88 98.9536 143.844 98.9592 143.809 98.9627C143.772 98.9646 143.736 98.9646 143.7 98.9627C143.416 98.9622 143.144 98.8486 142.944 98.6468C142.743 98.4449 142.63 98.1713 142.63 97.8859C142.629 97.8106 142.637 97.7354 142.654 97.6619C142.657 97.643 142.662 97.6243 142.667 97.606C142.667 97.5798 142.682 97.5556 142.691 97.5313C142.689 97.5258 142.689 97.52 142.691 97.5145C142.704 97.4799 142.718 97.4463 142.736 97.4137L142.769 97.3484C142.806 97.2805 142.853 97.2178 142.906 97.1618L142.949 97.117C142.97 97.0939 142.994 97.0726 143.019 97.0535L143.084 97.005L143.121 96.9789C143.161 96.9526 143.203 96.9295 143.247 96.9098C143.261 96.9022 143.276 96.8959 143.292 96.8912L143.36 96.865L143.394 96.8557C143.422 96.8463 143.45 96.8388 143.479 96.8333C143.507 96.827 143.536 96.8226 143.564 96.8203C143.58 96.8183 143.595 96.8183 143.611 96.8203H143.694C143.978 96.8203 144.25 96.9337 144.45 97.1357C144.651 97.3376 144.764 97.6115 144.764 97.8971C144.766 97.9338 144.766 97.9705 144.764 98.0072C144.761 98.038 144.756 98.0685 144.749 98.0986C144.741 98.1177 144.732 98.1364 144.723 98.1546L144.73 98.1621Z" fill="#E0A703"/>
<path d="M139.189 139.97L133.319 138.001L119.881 133.492C119.482 132.503 119.279 131.445 119.282 130.377V79.9307H128.991C129.245 85.1842 129.658 90.4171 130.168 95.5848C130.285 96.7668 130.403 97.9487 130.52 99.1307C131.816 112.047 136.766 127.123 139.189 139.97Z" fill="#E0A703"/>
<path d="M119.881 133.492L109.415 129.98V79.9307H119.282V130.377C119.279 131.445 119.482 132.503 119.881 133.492Z" fill="#C68F09"/>
<path d="M167.85 79.9381V130.353L164.072 131.62V79.9381H167.85Z" fill="#C68F09"/>
<path d="M141.896 93.7391C142.29 93.7391 142.677 93.6212 143.005 93.4003C143.333 93.1795 143.589 92.8656 143.74 92.4983C143.891 92.131 143.931 91.7269 143.854 91.337C143.777 90.9471 143.587 90.589 143.307 90.3079C143.028 90.0268 142.672 89.8353 142.285 89.7578C141.898 89.6802 141.496 89.72 141.132 89.8722C140.767 90.0243 140.455 90.2819 140.235 90.6124C140.016 90.943 139.899 91.3316 139.899 91.7291C139.899 92.2622 140.109 92.7734 140.484 93.1504C140.858 93.5273 141.366 93.7391 141.896 93.7391Z" fill="#C68F09"/>
<path d="M142.619 97.8896C142.618 98.1031 142.681 98.3118 142.798 98.4894C142.916 98.6671 143.083 98.8056 143.279 98.8875C143.475 98.9695 143.69 98.9911 143.898 98.9497C144.106 98.9083 144.297 98.8057 144.447 98.6549C144.597 98.5041 144.7 98.3119 144.741 98.1026C144.783 97.8933 144.761 97.6763 144.68 97.4791C144.599 97.2819 144.462 97.1133 144.286 96.9947C144.109 96.8761 143.902 96.8128 143.69 96.8128C143.406 96.8128 143.134 96.9262 142.933 97.1281C142.732 97.33 142.619 97.6039 142.619 97.8896Z" fill="#C68F09"/>
<path d="M148.957 97.5406C149.331 97.541 149.696 97.4298 150.007 97.2211C150.318 97.0123 150.56 96.7154 150.704 96.368C150.847 96.0205 150.885 95.6381 150.812 95.2691C150.739 94.9 150.56 94.561 150.295 94.2949C150.031 94.0287 149.695 93.8474 149.328 93.7739C148.962 93.7004 148.582 93.7379 148.236 93.8818C147.891 94.0257 147.596 94.2694 147.388 94.5822C147.181 94.895 147.07 95.2627 147.07 95.6389C147.07 96.143 147.269 96.6264 147.622 96.983C147.976 97.3396 148.456 97.5402 148.957 97.5406Z" fill="#C68F09"/>
<path d="M148.351 88.6703C148.471 88.6703 148.588 88.6345 148.688 88.5675C148.787 88.5004 148.865 88.4051 148.911 88.2936C148.957 88.1821 148.969 88.0594 148.945 87.941C148.922 87.8226 148.864 87.7139 148.78 87.6286C148.695 87.5432 148.587 87.4851 148.469 87.4615C148.352 87.438 148.23 87.4501 148.119 87.4963C148.008 87.5425 147.913 87.6207 147.847 87.721C147.78 87.8214 147.745 87.9394 147.745 88.0601C147.745 88.2219 147.808 88.3771 147.922 88.4916C148.036 88.606 148.19 88.6703 148.351 88.6703Z" fill="#C68F09"/>
<path d="M159.585 124.648C159.585 124.769 159.62 124.888 159.687 124.989C159.754 125.089 159.848 125.168 159.96 125.215C160.071 125.261 160.193 125.274 160.311 125.25C160.429 125.227 160.538 125.169 160.623 125.083C160.708 124.998 160.766 124.889 160.79 124.77C160.813 124.651 160.801 124.528 160.755 124.416C160.71 124.304 160.632 124.208 160.532 124.141C160.432 124.074 160.314 124.038 160.194 124.038C160.114 124.037 160.035 124.053 159.961 124.084C159.887 124.114 159.82 124.159 159.764 124.216C159.707 124.272 159.662 124.34 159.632 124.414C159.601 124.488 159.585 124.568 159.585 124.648Z" fill="#C68F09"/>
<path d="M149.45 110.403C149.922 110.403 150.382 110.263 150.774 109.999C151.166 109.736 151.472 109.362 151.653 108.923C151.833 108.485 151.881 108.003 151.789 107.537C151.697 107.072 151.47 106.644 151.137 106.309C150.803 105.973 150.379 105.745 149.916 105.653C149.454 105.56 148.975 105.608 148.54 105.789C148.104 105.971 147.732 106.279 147.471 106.674C147.209 107.068 147.069 107.532 147.07 108.007C147.07 108.642 147.321 109.252 147.767 109.701C148.213 110.15 148.819 110.403 149.45 110.403Z" fill="#C68F09"/>
<path d="M153.903 104.102C154.174 104.103 154.439 104.022 154.665 103.871C154.891 103.72 155.066 103.504 155.17 103.252C155.274 103 155.302 102.723 155.249 102.455C155.196 102.188 155.066 101.942 154.875 101.749C154.683 101.556 154.439 101.424 154.173 101.371C153.907 101.317 153.632 101.345 153.381 101.449C153.131 101.553 152.917 101.73 152.766 101.957C152.616 102.184 152.535 102.45 152.535 102.723C152.535 102.904 152.57 103.084 152.639 103.251C152.707 103.418 152.808 103.57 152.935 103.698C153.062 103.826 153.213 103.928 153.379 103.997C153.545 104.067 153.724 104.102 153.903 104.102Z" fill="#C68F09"/>
<path d="M158.698 88.773C158.995 88.773 159.286 88.6842 159.533 88.5179C159.78 88.3516 159.973 88.1152 160.087 87.8387C160.2 87.5621 160.23 87.2578 160.172 86.9642C160.114 86.6706 159.971 86.4009 159.761 86.1892C159.55 85.9776 159.283 85.8334 158.991 85.775C158.699 85.7166 158.397 85.7466 158.122 85.8611C157.848 85.9757 157.613 86.1697 157.447 86.4186C157.282 86.6675 157.194 86.9601 157.194 87.2595C157.194 87.6609 157.352 88.0458 157.634 88.3297C157.916 88.6135 158.299 88.773 158.698 88.773Z" fill="#C68F09"/>
<path d="M158.698 95.7248C158.698 95.8751 158.742 96.022 158.825 96.1469C158.908 96.2717 159.027 96.3688 159.165 96.4258C159.303 96.4828 159.455 96.4971 159.601 96.467C159.748 96.4368 159.882 96.3636 159.986 96.2565C160.091 96.1494 160.162 96.0133 160.19 95.8656C160.218 95.7179 160.201 95.5652 160.142 95.427C160.084 95.2887 159.986 95.1712 159.86 95.0893C159.735 95.0074 159.588 94.9648 159.439 94.9671C159.341 94.9671 159.243 94.9867 159.153 95.0249C159.062 95.0632 158.98 95.1191 158.911 95.1897C158.842 95.2602 158.787 95.3438 158.751 95.4357C158.714 95.5275 158.696 95.6258 158.698 95.7248Z" fill="#C68F09"/>
<path d="M157.422 117.857C157.972 117.859 158.511 117.696 158.969 117.389C159.428 117.083 159.786 116.646 159.998 116.135C160.21 115.624 160.266 115.061 160.16 114.517C160.054 113.973 159.789 113.474 159.401 113.081C159.012 112.689 158.517 112.421 157.977 112.312C157.437 112.204 156.878 112.259 156.369 112.47C155.861 112.682 155.426 113.041 155.12 113.501C154.814 113.962 154.65 114.503 154.65 115.057C154.649 115.424 154.72 115.788 154.859 116.128C154.997 116.467 155.201 116.776 155.459 117.036C155.716 117.296 156.022 117.503 156.359 117.643C156.696 117.784 157.057 117.857 157.422 117.857Z" fill="#C68F09"/>
<path d="M147.153 121.923C146.796 121.923 146.447 122.029 146.149 122.229C145.852 122.428 145.62 122.712 145.484 123.044C145.347 123.377 145.311 123.742 145.38 124.095C145.45 124.448 145.622 124.772 145.875 125.026C146.127 125.281 146.449 125.454 146.8 125.524C147.15 125.594 147.513 125.558 147.843 125.42C148.173 125.282 148.455 125.049 148.654 124.75C148.852 124.45 148.957 124.099 148.957 123.739C148.957 123.257 148.767 122.796 148.429 122.455C148.09 122.115 147.632 121.923 147.153 121.923Z" fill="#C68F09"/>
<path d="M143.892 114.628C143.892 114.897 143.971 115.16 144.119 115.384C144.267 115.608 144.478 115.783 144.725 115.886C144.972 115.99 145.244 116.017 145.506 115.965C145.769 115.912 146.01 115.783 146.199 115.593C146.388 115.402 146.517 115.16 146.569 114.896C146.622 114.632 146.595 114.358 146.493 114.11C146.39 113.861 146.217 113.648 145.995 113.499C145.773 113.349 145.511 113.269 145.244 113.269C144.886 113.269 144.542 113.412 144.289 113.667C144.035 113.922 143.893 114.268 143.892 114.628Z" fill="#C68F09"/>
<path d="M154.804 123.739C154.626 123.739 154.451 123.792 154.303 123.892C154.154 123.992 154.038 124.134 153.97 124.3C153.902 124.466 153.884 124.649 153.919 124.825C153.954 125.002 154.04 125.164 154.166 125.291C154.292 125.418 154.453 125.504 154.628 125.539C154.803 125.574 154.985 125.556 155.15 125.488C155.315 125.419 155.456 125.302 155.555 125.153C155.654 125.003 155.707 124.828 155.707 124.648C155.707 124.407 155.612 124.176 155.443 124.005C155.273 123.835 155.044 123.739 154.804 123.739Z" fill="#C68F09"/>
<path d="M144.111 105.222C144.111 105.001 144.046 104.784 143.923 104.6C143.801 104.416 143.627 104.272 143.424 104.188C143.221 104.103 142.997 104.081 142.782 104.124C142.566 104.167 142.368 104.274 142.212 104.43C142.056 104.587 141.951 104.786 141.908 105.004C141.865 105.221 141.887 105.446 141.971 105.651C142.055 105.855 142.198 106.03 142.381 106.153C142.564 106.276 142.779 106.342 142.999 106.342C143.294 106.342 143.577 106.224 143.785 106.014C143.994 105.804 144.111 105.519 144.111 105.222Z" fill="#C68F09"/>
</g>
<defs>
<filter id="filter0_f_401_2237" x="18.9688" y="156.656" width="248.755" height="75.2583" filterUnits="userSpaceOnUse" color-interpolation-filters="sRGB">
<feFlood flood-opacity="0" result="BackgroundImageFix"/>
<feBlend mode="normal" in="SourceGraphic" in2="BackgroundImageFix" result="shape"/>
<feGaussianBlur stdDeviation="8.5" result="effect1_foregroundBlur_401_2237"/>
</filter>
<clipPath id="clip0_401_2237">
<rect width="271.882" height="205.234" fill="white" transform="translate(0 0.159546)"/>
</clipPath>
</defs>
</svg>
